<svg width="366" height="39" viewBox="0 0 366 39" fill="none" xmlns="http://www.w3.org/2000/svg">
<path d="M22.0799 35.712L-0.000107408 25.728V18.864L22.0799 8.83199V15.36L8.83189 21.168C8.19189 21.456 7.51989 21.696 6.81589 21.888C6.11189 22.08 5.55189 22.208 5.13589 22.272C5.55189 22.336 6.11189 22.464 6.81589 22.656C7.51989 22.816 8.19189 23.04 8.83189 23.328L22.0799 29.136V35.712ZM31.1331 38.064V3.02399H38.3331V21.648H41.8851L47.4051 11.664H55.4211L48.0771 24.576L55.5651 38.064H47.4051L41.8371 27.696H38.3331V38.064H31.1331ZM73.4504 38.544C71.1144 38.544 69.0664 38.112 67.3064 37.248C65.5784 36.352 64.2344 35.12 63.2744 33.552C62.3464 31.952 61.8824 30.096 61.8824 27.984V21.744C61.8824 19.632 62.3464 17.792 63.2744 16.224C64.2344 14.624 65.5784 13.392 67.3064 12.528C69.0664 11.632 71.1144 11.184 73.4504 11.184C75.7864 11.184 77.8024 11.632 79.4984 12.528C81.2264 13.392 82.5544 14.624 83.4824 16.224C84.4424 17.792 84.9224 19.632 84.9224 21.744V26.544H68.7464V27.984C68.7464 29.648 69.1464 30.912 69.9464 31.776C70.7464 32.608 71.9464 33.024 73.5464 33.024C74.6664 33.024 75.5624 32.832 76.2344 32.448C76.9384 32.064 77.4024 31.536 77.6264 30.864H84.6824C84.1064 33.168 82.7944 35.024 80.7464 36.432C78.7304 37.84 76.2984 38.544 73.4504 38.544ZM78.0584 22.848V21.648C78.0584 20.016 77.6744 18.768 76.9064 17.904C76.1704 17.04 75.0184 16.608 73.4504 16.608C71.8824 16.608 70.6984 17.056 69.8984 17.952C69.1304 18.848 68.7464 20.112 68.7464 21.744V22.464L78.5384 22.368L78.0584 22.848ZM107.464 38.064C104.776 38.064 102.664 37.296 101.128 35.76C99.5916 34.224 98.8236 32.112 98.8236 29.424V18.144H91.8636V11.664H98.8236V4.22399H106.024V11.664H115.864V18.144H106.024V29.424C106.024 30.864 106.744 31.584 108.184 31.584H115.384V38.064H107.464ZM135.909 38.544C133.573 38.544 131.525 38.112 129.765 37.248C128.005 36.352 126.645 35.12 125.685 33.552C124.725 31.952 124.245 30.096 124.245 27.984V21.744C124.245 19.6 124.725 17.744 125.685 16.176C126.645 14.608 128.005 13.392 129.765 12.528C131.525 11.632 133.573 11.184 135.909 11.184C139.397 11.184 142.181 12.064 144.261 13.824C146.341 15.584 147.445 17.984 147.573 21.024H140.373C140.277 19.904 139.829 19.024 139.029 18.384C138.261 17.744 137.221 17.424 135.909 17.424C134.469 17.424 133.365 17.792 132.597 18.528C131.829 19.264 131.445 20.336 131.445 21.744V27.984C131.445 29.36 131.829 30.432 132.597 31.2C133.365 31.936 134.469 32.304 135.909 32.304C137.221 32.304 138.261 32 139.029 31.392C139.829 30.752 140.277 29.856 140.373 28.704H147.573C147.445 31.744 146.341 34.144 144.261 35.904C142.181 37.664 139.397 38.544 135.909 38.544ZM155.906 38.064V31.536H165.026V18.144H157.106V11.664H171.746V31.536H179.426V38.064H155.906ZM167.906 7.48799C166.594 7.48799 165.538 7.15199 164.738 6.47999C163.97 5.80799 163.586 4.89599 163.586 3.74399C163.586 2.59199 163.97 1.67999 164.738 1.00799C165.538 0.335994 166.594 -6.67572e-06 167.906 -6.67572e-06C169.218 -6.67572e-06 170.258 0.335994 171.026 1.00799C171.826 1.67999 172.226 2.59199 172.226 3.74399C172.226 4.89599 171.826 5.80799 171.026 6.47999C170.258 7.15199 169.218 7.48799 167.906 7.48799ZM194.719 38.544C192.063 38.544 189.951 37.824 188.383 36.384C186.847 34.944 186.079 32.992 186.079 30.528C186.079 27.872 186.991 25.84 188.815 24.432C190.671 22.992 193.327 22.272 196.783 22.272H202.255V20.304C202.255 19.28 201.887 18.464 201.151 17.856C200.447 17.248 199.487 16.944 198.271 16.944C197.151 16.944 196.223 17.2 195.487 17.712C194.751 18.224 194.303 18.928 194.143 19.824H187.183C187.471 17.168 188.623 15.072 190.639 13.536C192.687 11.968 195.311 11.184 198.511 11.184C201.871 11.184 204.527 12.016 206.479 13.68C208.463 15.312 209.455 17.52 209.455 20.304V38.064H202.495V33.744H201.343L202.543 32.064C202.543 34.048 201.823 35.632 200.383 36.816C198.975 37.968 197.087 38.544 194.719 38.544ZM197.407 33.264C198.815 33.264 199.967 32.896 200.863 32.16C201.791 31.392 202.255 30.4 202.255 29.184V26.352H196.927C195.839 26.352 194.959 26.672 194.287 27.312C193.615 27.92 193.279 28.736 193.279 29.76C193.279 30.848 193.647 31.712 194.383 32.352C195.119 32.96 196.127 33.264 197.407 33.264ZM229.309 38.544C227.837 38.544 226.653 38.112 225.757 37.248C224.893 36.352 224.461 35.168 224.461 33.696C224.461 32.192 224.893 31.008 225.757 30.144C226.653 29.28 227.837 28.848 229.309 28.848C230.813 28.848 231.997 29.28 232.861 30.144C233.725 31.008 234.157 32.192 234.157 33.696C234.157 35.168 233.725 36.352 232.861 37.248C231.997 38.112 230.813 38.544 229.309 38.544ZM257.754 38.544C255.098 38.544 252.97 37.616 251.37 35.76C249.77 33.904 248.97 31.392 248.97 28.224V21.504C248.97 18.368 249.77 15.872 251.37 14.016C252.97 12.128 255.098 11.184 257.754 11.184C259.93 11.184 261.642 11.824 262.89 13.104C264.138 14.352 264.762 16.112 264.762 18.384L263.082 16.704H264.762L264.522 10.224V3.02399H271.722V38.064H264.762V33.024H263.082L264.762 31.344C264.762 33.616 264.138 35.392 262.89 36.672C261.642 37.92 259.93 38.544 257.754 38.544ZM260.346 32.304C261.658 32.304 262.682 31.936 263.418 31.2C264.154 30.432 264.522 29.36 264.522 27.984V21.744C264.522 20.368 264.154 19.312 263.418 18.576C262.682 17.808 261.658 17.424 260.346 17.424C259.002 17.424 257.962 17.808 257.226 18.576C256.522 19.312 256.17 20.368 256.17 21.744V27.984C256.17 29.36 256.522 30.432 257.226 31.2C257.962 31.936 259.002 32.304 260.346 32.304ZM291.719 38.544C289.383 38.544 287.335 38.112 285.575 37.248C283.847 36.352 282.503 35.12 281.543 33.552C280.615 31.952 280.151 30.096 280.151 27.984V21.744C280.151 19.632 280.615 17.792 281.543 16.224C282.503 14.624 283.847 13.392 285.575 12.528C287.335 11.632 289.383 11.184 291.719 11.184C294.055 11.184 296.071 11.632 297.767 12.528C299.495 13.392 300.823 14.624 301.751 16.224C302.711 17.792 303.191 19.632 303.191 21.744V26.544H287.015V27.984C287.015 29.648 287.415 30.912 288.215 31.776C289.015 32.608 290.215 33.024 291.815 33.024C292.935 33.024 293.831 32.832 294.503 32.448C295.207 32.064 295.671 31.536 295.895 30.864H302.951C302.375 33.168 301.063 35.024 299.015 36.432C296.999 37.84 294.567 38.544 291.719 38.544ZM296.327 22.848V21.648C296.327 20.016 295.943 18.768 295.175 17.904C294.439 17.04 293.287 16.608 291.719 16.608C290.151 16.608 288.967 17.056 288.167 17.952C287.399 18.848 287.015 20.112 287.015 21.744V22.464L296.807 22.368L296.327 22.848ZM318.388 38.064L309.748 11.664H317.188L321.604 26.496C321.86 27.392 322.116 28.368 322.372 29.424C322.628 30.48 322.82 31.328 322.948 31.968C323.108 31.328 323.3 30.48 323.524 29.424C323.78 28.368 324.02 27.408 324.244 26.544L328.612 11.664H335.956L327.412 38.064H318.388ZM342.994 35.712V29.184L356.242 23.376C356.882 23.088 357.554 22.848 358.258 22.656C358.962 22.464 359.522 22.336 359.938 22.272C359.522 22.208 358.962 22.096 358.258 21.936C357.554 21.744 356.882 21.504 356.242 21.216L342.994 15.408V8.83199L365.074 18.816V25.68L342.994 35.712Z" fill="#141414"/>
</svg>
